<svg width="119" height="48" viewBox="0 0 119 48" fill="none" xmlns="http://www.w3.org/2000/svg">
<path d="M34.0827 31.768L40.6557 46.978C40.6711 47.0199 40.6989 47.0561 40.7353 47.0818C40.7717 47.1075 40.8151 47.1215 40.8597 47.122H45.8577C46.0177 47.122 46.1347 46.949 46.0617 46.805L26.4897 1.52105C26.4744 1.47912 26.4467 1.44286 26.4103 1.41712C26.3738 1.39139 26.3303 1.37741 26.2857 1.37705H20.6757C20.6311 1.37741 20.5876 1.39139 20.5512 1.41712C20.5147 1.44286 20.487 1.47912 20.4717 1.52105L0.899718 46.805C0.840718 46.949 0.942718 47.122 1.10372 47.122H6.10172C6.14631 47.1215 6.1897 47.1075 6.22613 47.0818C6.26256 47.0561 6.29032 47.0199 6.30572 46.978L12.6887 32.228L11.6837 32.632H35.5837L34.0827 31.768ZM33.2817 27.648H13.9417L14.3647 28.311L23.3717 7.44105H23.5757L32.7127 28.585L33.2817 27.648ZM87.0567 22.665H61.6847C61.5537 22.665 61.4517 22.765 61.4517 22.895V27.418C61.4517 27.548 61.5537 27.648 61.6847 27.648H82.6117L82.2917 27.231C82.2917 31.019 78.5317 42.786 64.9487 42.786C53.6407 42.786 46.8487 34.144 46.8487 24.004C46.8487 14.167 53.9897 5.81305 65.1827 5.81305C72.8187 5.81305 77.7007 9.19805 80.1927 14.123C80.2367 14.196 80.3097 14.253 80.3967 14.253H85.5407C85.7007 14.253 85.8037 14.095 85.7607 13.951C83.6597 7.84405 77.3647 0.873047 65.0357 0.873047C51.2057 0.873047 41.7037 11.157 41.7037 24.076C41.7037 37.026 50.4767 47.741 64.9477 47.741C77.8897 47.741 87.4927 38.537 87.4927 24.307C87.4927 23.904 87.4927 23.4 87.4347 23.068C87.3907 22.852 87.3187 22.665 87.0567 22.665ZM101.048 1.36205H96.6757C96.5437 1.36205 96.4567 1.46305 96.4417 1.59205C96.0777 7.00805 91.9827 9.15405 88.5717 9.15405C88.4417 9.15405 88.3397 9.25505 88.3397 9.38505V13.922C88.3397 14.052 88.4417 14.152 88.5727 14.152C91.6767 14.109 95.3927 12.669 96.7627 10.897L96.2087 10.364V46.906C96.2087 47.036 96.3107 47.136 96.4417 47.136H101.033C101.164 47.136 101.266 47.036 101.266 46.906V1.62205C101.281 1.46305 101.179 1.36205 101.048 1.36205ZM111.817 7.71405C112.444 7.55605 112.983 7.03705 112.983 6.17305C112.983 5.20805 112.211 4.51705 110.87 4.51705H108.611V10.321H109.719V8.09005H110.447C111.176 8.09005 111.438 8.45005 111.628 8.99705C111.803 9.47205 111.934 9.99105 112.123 10.337H113.245V10.293C113.041 9.91905 112.91 9.48705 112.75 8.95305C112.546 8.32005 112.356 7.87205 111.817 7.71405ZM110.812 7.22405H109.704V5.42405H110.782C111.555 5.42405 111.89 5.79805 111.89 6.28805C111.89 6.85005 111.497 7.22405 110.812 7.22405Z" fill="white"/>
<path d="M110.695 0.873047C106.964 0.873047 103.948 3.85405 103.948 7.54105C103.948 11.229 106.964 14.211 110.695 14.211C114.426 14.211 117.443 11.229 117.443 7.54105C117.443 3.85405 114.426 0.873047 110.695 0.873047ZM110.695 13.087C107.606 13.087 105.084 10.595 105.084 7.54105C105.084 4.48805 107.606 1.99605 110.695 1.99605C113.785 1.99605 116.306 4.48805 116.306 7.54105C116.306 10.595 113.799 13.087 110.695 13.087Z" fill="white"/>
</svg>
