<svg width="190" height="31" viewBox="0 0 190 31" fill="none" xmlns="http://www.w3.org/2000/svg">
<path fill-rule="evenodd" clip-rule="evenodd" d="M74.2865 0.414062V8.8088L79.4155 0.414062H74.2865ZM72.4211 26.9955C71.955 28.0826 71.489 29.3269 71.489 29.3269C69.0014 29.9469 65.5818 30.4141 63.0953 30.4141C53.7684 30.4141 47.7062 24.6618 47.8623 16.2692C48.0173 7.25235 54.0795 2.12229 63.2503 2.27836C66.8261 2.27836 69.9336 3.36767 70.8668 3.52267H71.8C71.8 3.52267 71.644 4.76482 71.8 6.0102C71.9561 7.40843 72.4211 8.80881 72.4211 10.051C72.4211 10.362 72.11 9.89488 72.11 9.89488C71.3329 6.63235 66.0478 4.45375 63.0953 4.45375C56.0999 4.45375 51.4369 8.96273 51.4369 16.2692C51.593 22.1743 56.0999 27.9265 62.6282 27.9265C66.2028 27.9265 70.2447 26.9955 72.5761 24.0418L73.1983 24.509C73.1983 24.509 72.8872 25.5951 72.4211 26.9955ZM108.95 14.2489H115.014C116.256 14.2489 118.743 14.4049 119.366 14.2489C119.833 14.0928 120.144 13.6267 120.297 13.7817C120.453 13.7817 120.453 13.9378 120.453 13.9378V17.8225C120.297 17.8225 120.297 17.6664 119.677 17.3553C118.898 17.1992 116.256 17.1992 115.014 17.1992H108.95V26.6833H117.5C118.742 26.6833 120.143 26.5272 120.763 26.3722C121.23 26.0611 121.696 25.594 121.852 25.7501C122.008 25.7501 121.852 25.9062 121.852 25.9062C121.852 26.8394 121.696 27.7705 121.541 29.0158V29.7919H107.085C105.841 29.7919 105.685 29.948 104.754 29.948C104.754 29.948 104.598 29.948 104.443 29.7919C104.443 29.638 104.599 29.7919 104.91 29.0158C105.375 28.2376 105.375 26.8405 105.375 25.5951V15.8021V6.94127C105.375 5.69912 105.375 4.3009 104.91 3.52267C104.599 2.74444 104.443 2.90052 104.443 2.74445C104.599 2.58837 104.754 2.58837 104.754 2.58837C105.685 2.58837 105.841 2.74445 107.085 2.74445H121.074V6.32128C121.074 6.32128 121.23 6.47735 121.074 6.47735C120.918 6.63342 120.607 6.16628 120.143 6.0102C119.521 5.85413 118.12 5.69913 117.033 5.69913L108.949 5.54305L108.95 14.2489ZM13.8194 2.58944C13.8194 2.58944 20.5026 18.2896 23.6123 25.1279C24.3895 26.9944 25.3216 28.7037 25.6327 29.0148C26.2549 29.7908 26.4099 29.7908 26.4099 29.7908H22.8352C21.5909 29.7908 20.9698 29.9469 20.9698 29.7908C21.2809 29.1708 21.1259 28.3926 20.8137 27.4594C20.6576 27.3033 20.1926 26.0611 20.0366 25.5951C17.8601 20.7761 13.3522 10.051 13.3522 10.051C13.0411 9.42881 13.1961 9.42881 12.8861 10.051C12.8861 10.051 8.37822 20.7772 6.20284 25.5951C6.04676 26.0622 5.58069 27.3044 5.42569 27.4594C5.11461 28.3926 4.95961 29.1708 5.26961 29.7908C5.26961 29.9469 4.80354 29.7908 3.71531 29.7908H0.140625L0.762777 29.0148C1.07385 28.7037 2.006 26.9944 2.93923 25.1279C5.89284 18.2886 12.7322 2.58944 12.7322 2.58944C13.0422 1.81229 13.3533 1.81229 13.8194 2.58944ZM89.9867 5.8552V25.4401C89.9867 26.6844 89.9867 28.0826 89.6756 28.8608L89.2095 29.6391C89.2095 29.793 89.5206 29.793 89.5206 29.793C90.4538 29.793 90.6088 29.6391 92.0081 29.6391C93.0964 29.6391 93.4075 29.793 94.3396 29.793C94.3396 29.793 94.4957 29.793 94.4957 29.6391C94.4957 29.483 94.1846 29.328 94.0285 28.7058C93.7175 28.2387 93.7175 26.6855 93.7175 25.4412V5.85627H97.6021C98.8464 5.85627 101.023 6.01235 101.489 6.16735C102.111 6.32343 102.267 6.78952 102.422 6.63452C102.576 6.63452 102.576 6.47843 102.576 6.47843V2.74659H80.3487C80.3487 3.8359 80.1926 5.7002 80.1926 6.63343C80.1926 6.63343 80.0366 6.78951 80.1926 6.78951C80.3487 6.94343 80.6598 6.47843 81.1259 6.32235C81.748 6.16628 84.0795 5.8552 85.3227 5.8552H89.9867ZM154.651 16.5803V24.0418C154.651 25.284 154.495 28.2376 154.184 29.0158C153.872 29.638 153.716 29.638 153.716 29.7919C153.716 29.948 154.027 29.7919 154.027 29.7919H159.003C159.003 29.7919 159.159 29.948 159.159 29.7919C159.315 29.638 158.848 29.3269 158.691 28.8608C158.535 28.2387 158.38 26.6855 158.38 25.5962V16.5814C158.38 16.5814 166.619 3.67982 167.241 3.52374C168.172 3.36767 168.483 2.74552 168.483 2.74552H165.065C163.82 2.74552 162.577 2.58944 162.577 2.74552C162.888 3.36767 162.733 3.98983 162.266 4.9209C161.799 5.69913 157.136 13.0046 156.825 13.3157C156.514 13.0046 151.695 5.85413 151.229 4.9209C150.607 4.14482 150.607 3.36767 150.762 2.74552C150.918 2.74552 149.208 2.9016 147.963 2.9016C146.876 2.9016 144.389 2.74552 144.389 2.74552C144.389 2.74552 144.701 2.74551 145.477 3.52374C146.256 4.14589 154.651 16.5803 154.651 16.5803Z" fill="white"/>
<path fill-rule="evenodd" clip-rule="evenodd" d="M179.209 15.9586C179.209 15.9586 187.604 28.3941 188.38 29.0162C189.158 29.7923 189.313 29.7923 189.313 29.7923C189.313 29.7923 186.982 29.6384 185.892 29.6384C184.65 29.6384 182.941 29.7923 182.941 29.7923C183.25 29.1723 183.097 28.3941 182.63 27.6169C182.163 26.6859 177.5 19.5354 177.189 19.2243C176.878 19.5354 172.215 26.6859 171.747 27.6169C171.28 28.3952 171.125 29.1723 171.436 29.7923C171.436 29.7923 170.038 29.6384 168.794 29.6384C167.707 29.6384 165.22 29.7923 165.22 29.7923C165.22 29.7923 165.529 29.7923 166.307 29.0162C167.086 28.3941 175.324 16.2696 175.324 16.2696C175.324 16.2696 167.397 3.99022 166.307 3.36807C165.376 2.90092 165.529 2.74592 165.529 2.74592H168.794C170.038 2.74592 171.747 2.58984 171.592 2.74592C171.436 3.36807 171.436 4.1463 172.06 4.9213C172.527 5.69953 177.034 12.6939 177.345 13.005C177.656 12.6939 182.164 5.85452 182.63 5.07737C183.25 4.1463 183.25 3.36807 183.097 2.74592C183.097 2.58984 184.65 2.74592 185.893 2.74592H189.158C189.158 2.74592 188.536 3.057 187.916 3.67915C187.137 4.3013 179.209 15.9586 179.209 15.9586ZM133.976 17.5129C133.976 17.5129 140.659 27.1519 141.281 27.928C141.904 29.0173 143.302 30.2595 145.477 30.2595H147.655C147.655 30.2595 147.499 30.1034 146.721 29.4834C145.323 28.2391 138.483 18.4461 138.483 18.4461C141.436 17.2018 144.701 15.1814 144.546 10.6735C144.39 4.1463 139.883 2.43484 133.042 2.74592H129.312C128.068 2.74592 127.603 2.58984 126.669 2.58984C126.669 2.58984 126.513 2.58984 126.358 2.74592C126.358 2.90199 126.669 3.05699 126.669 3.05699C127.292 3.83522 127.292 7.5649 127.292 8.8092V25.4405C127.292 26.6848 127.292 28.2391 126.98 29.0162C126.513 29.6384 126.513 29.6384 126.513 29.7923C126.513 29.9484 126.669 29.7923 126.669 29.7923H131.643C131.643 29.7923 131.799 29.9484 131.954 29.7923C131.954 29.6384 131.643 29.3273 131.332 28.8612C131.176 28.2391 131.021 26.6859 131.021 25.4405V5.8556C131.021 4.6113 131.643 4.45522 133.197 4.45522C138.482 4.45522 140.813 7.09776 140.813 10.9846C140.814 15.1814 138.483 17.2018 133.976 17.5129ZM34.1819 17.5129C34.1819 17.5129 41.0213 27.1519 41.4884 27.928C42.2656 29.0173 43.5088 30.2595 45.8403 30.2595H47.8617L47.0846 29.4834C45.6853 28.2391 38.8459 18.4461 38.8459 18.4461C41.7995 17.2018 45.0631 15.1814 44.9081 10.6735C44.597 4.1463 40.2452 2.43484 33.4048 2.74592H29.674C28.2747 2.74592 27.9647 2.58984 26.8754 2.58984C26.8754 2.58984 26.7204 2.58984 26.7204 2.74592C26.5643 2.90199 27.0315 3.05699 27.0315 3.05699C27.4975 3.83522 27.4975 7.5649 27.4975 8.8092C27.4975 11.2967 27.6536 23.5762 27.6536 25.4405C27.6536 26.6848 27.4975 28.2391 27.1865 29.0162C26.8754 29.6384 26.7204 29.6384 26.7204 29.7923C26.8754 29.9484 27.0315 29.7923 27.0315 29.7923H31.8505C31.8505 29.7923 32.1615 29.9484 32.1615 29.7923C32.1615 29.6384 31.8504 29.3273 31.6944 28.8612C31.3833 28.2391 31.3833 26.6859 31.3833 25.4405V5.8556C31.3833 4.6113 32.0044 4.45522 33.5587 4.45522C38.6887 4.45522 41.0202 7.09776 41.1752 10.9846C41.1763 15.1814 38.8448 17.2018 34.1819 17.5129ZM71.3323 8.34206C71.3323 8.34206 72.5756 10.5174 72.2656 8.49813C71.7995 5.23344 72.7316 10.2074 72.7316 10.2074L72.1095 10.3635L71.3323 8.34206Z" fill="white"/>
</svg>
