<svg width="151" height="36" viewBox="0 0 151 36" fill="none" xmlns="http://www.w3.org/2000/svg">
<g clip-path="url(#clip0_348_705)">
<path d="M123.305 22.8791C123.305 25.4155 123.659 27.4367 124.364 28.9424C124.992 30.3396 125.89 31.5988 127.008 32.6476C127.845 33.3774 128.817 33.9401 129.867 34.3054C132.105 35.1117 134.468 35.5144 136.847 35.4949C141.175 35.4949 144.462 34.3896 146.708 32.1793C148.955 29.9689 150.078 26.8108 150.078 22.705V1.18281H143.405V21.7518C143.46 23.2719 143.148 24.7829 142.496 26.1574C141.97 27.2286 141.119 28.1064 140.064 28.6647C138.985 29.1944 137.795 29.4588 136.594 29.4356C134.558 29.4356 132.947 28.7974 131.759 27.5209C130.572 26.2444 129.979 24.3213 129.979 21.7518V1.18281H123.305V22.8791ZM112.988 34.8359H118.309V17.628H104.123V22.6885H112.988C112.805 23.6295 112.506 24.5442 112.095 25.4114C111.693 26.1651 111.173 26.8505 110.557 27.4421C109.783 28.1826 108.872 28.7653 107.875 29.1579C106.808 29.6173 105.659 29.8556 104.497 29.8583C102.921 29.8573 101.381 29.3823 100.079 28.4953C98.777 27.6083 97.7726 26.3502 97.1966 24.885C96.5216 23.2714 96.184 20.9229 96.184 17.8394C96.184 13.4352 97.0002 10.3863 98.6326 8.69258C99.4405 7.8566 100.415 7.19897 101.493 6.7621C102.571 6.32523 103.728 6.11881 104.891 6.15616C107.033 6.15616 108.777 6.79993 110.125 8.08749C111.062 8.99927 111.833 10.3628 112.436 12.1781L117.706 10.3752C117.331 8.79707 116.691 7.29359 115.814 5.92822C114.641 4.24305 113.062 2.87922 111.224 1.96197C109.172 0.957929 106.91 0.459119 104.625 0.507261C101.946 0.495493 99.3044 1.13863 96.931 2.38056C94.4812 3.67635 92.4989 5.70524 91.2618 8.18281C89.8784 10.8187 89.1868 14.307 89.1868 18.6476C89.1868 22.8169 89.8412 26.1076 91.1498 28.5197C92.2752 30.7469 94.0374 32.5903 96.213 33.8163C98.1966 34.9052 100.424 35.4755 102.687 35.4741C104.84 35.4836 106.961 34.9565 108.859 33.9406C110.418 33.09 111.821 31.9816 113.009 30.6623L112.988 34.8359ZM80.542 34.8359H85.8625V17.628H71.6773V22.6885H80.542C80.36 23.6293 80.0616 24.5439 79.6539 25.4114C79.2496 26.1642 78.7301 26.8494 78.1141 27.4421C77.3385 28.1819 76.4266 28.7646 75.4289 29.1579C74.362 29.6173 73.2127 29.8556 72.0508 29.8583C70.4744 29.8573 68.9351 29.3823 67.633 28.4953C66.331 27.6083 65.3265 26.3502 64.7505 24.885C64.0755 23.2714 63.7379 20.9229 63.7379 17.8394C63.7379 13.4352 64.5555 10.3863 66.1907 8.69258C66.9971 7.85587 67.9705 7.19772 69.048 6.76078C70.1254 6.32384 71.2827 6.11785 72.445 6.15616C74.5865 6.15616 76.3324 6.79993 77.6825 8.08749C78.6205 8.99927 79.3896 10.3628 79.99 12.1781L85.2483 10.3711C84.8715 8.79264 84.2302 7.28912 83.3516 5.92407C82.1796 4.23795 80.6009 2.87389 78.7616 1.95783C76.7111 0.954278 74.4499 0.455479 72.1669 0.503118C69.4861 0.491346 66.8432 1.13446 64.4683 2.37642C62.0186 3.6722 60.0361 5.7011 58.7992 8.17866C57.4158 10.8145 56.7242 14.3028 56.7242 18.6435C56.7242 22.8127 57.3784 26.1035 58.6871 28.5155C59.8121 30.7507 61.5756 32.6027 63.7546 33.8371C65.7395 34.9261 67.968 35.4964 70.233 35.4949C72.3845 35.5043 74.5043 34.9772 76.4001 33.9614C77.9591 33.1108 79.3624 32.0023 80.5503 30.6831L80.542 34.8359ZM45.7303 22.017H38.1231L41.9246 10.2923L45.7303 22.017ZM27.4695 34.8359H33.9439L36.5169 26.9075H47.3074L49.8846 34.8359H56.359L45.4481 1.18281H38.3928L27.4695 34.8359ZM13.9524 19.5677C15.9804 19.5677 17.5244 20.0346 18.584 20.9684C19.0931 21.4008 19.4996 21.9408 19.7738 22.5493C20.0481 23.158 20.1832 23.82 20.1694 24.4871C20.1926 25.2015 20.0473 25.9112 19.7452 26.5591C19.4432 27.2071 18.9928 27.7751 18.4304 28.2172C17.2684 29.1566 15.3123 29.6262 12.5621 29.6262H7.2582V19.5677H13.9524ZM14.1351 6.33023C15.9251 6.33023 17.238 6.69219 18.0735 7.41609C18.4811 7.76842 18.8044 8.20739 19.0199 8.70081C19.2353 9.19421 19.3374 9.72953 19.3186 10.2675C19.3186 11.4611 18.9575 12.3397 18.2396 12.949C17.1395 13.8723 15.742 14.3669 14.3051 14.3415H7.2499V6.33023H14.1351ZM0.671875 34.8359H15.5087C18.187 34.8359 20.3921 34.3883 22.1241 33.4931C23.7081 32.7363 25.0282 31.522 25.9132 30.0075C26.6855 28.6562 27.0958 27.1289 27.1043 25.573C27.098 24.2404 26.7721 22.9287 26.154 21.7476C25.5221 20.5057 24.6065 19.4295 23.4813 18.6062C22.3837 17.8621 21.1668 17.3113 19.883 16.9773C21.4302 16.4904 22.8483 15.6634 24.0332 14.557C24.7283 13.8537 25.2746 13.0179 25.6396 12.0994C26.0047 11.181 26.181 10.1985 26.1581 9.21064C26.2039 7.91191 25.8967 6.62503 25.269 5.48667C24.6413 4.3483 23.7166 3.40096 22.5931 2.74527C20.933 1.70363 18.4028 1.18281 15.0024 1.18281H0.671875V34.8359Z" fill="white"/>
</g>
<defs>
<clipPath id="clip0_348_705">
<rect width="149.406" height="35" fill="white" transform="translate(0.671875 0.5)"/>
</clipPath>
</defs>
</svg>
