<svg width="18" height="16" viewBox="0 0 18 16" fill="none" xmlns="http://www.w3.org/2000/svg">
<path d="M9 7.51418C8.18497 5.81243 5.9654 2.64107 3.90173 1.07699C2.41271 -0.0515666 0 -0.924787 0 1.85385C0 2.40877 0.315166 6.51557 0.5 7.18236C1.14254 9.5003 3.48378 10.0915 5.56647 9.73368C1.92606 10.3592 1 12.431 3 14.5028C7.5 19.1645 9 11.3951 9 12.0091V7.51418Z" fill="#0B0B0B"/>
<path d="M9 7.51418C9.81503 5.81243 12.0346 2.64107 14.0983 1.07699C15.5873 -0.0515666 18 -0.924787 18 1.85385C18 2.40877 17.6848 6.51557 17.5 7.18236C16.8575 9.5003 14.5162 10.0915 12.4335 9.73368C16.0739 10.3592 17 12.431 15 14.5028C10.5 19.1645 9 11.3951 9 12.0091V7.51418Z" fill="#0B0B0B"/>
</svg>
