<svg width="176" height="176" viewBox="0 0 176 176" fill="none" xmlns="http://www.w3.org/2000/svg">
<path d="M52.1273 59.3429C51.65 55.1979 48.334 52.8867 44.3899 52.8867C38.8381 52.8867 35.5723 57.0318 35.5723 62.3575C35.5723 67.5326 38.8381 71.6776 44.3899 71.6776C48.7862 71.6776 51.8761 68.8137 52.2781 64.3421H48.4596C48.1581 66.7035 46.8016 68.3616 44.3899 68.3616C40.8478 68.3616 39.5163 65.347 39.5163 62.3575C39.5163 59.2173 40.8478 56.2028 44.3899 56.2028C46.3494 56.2028 48.0577 57.5593 48.3089 59.3429H52.1273Z" fill="white"/>
<path d="M62.1213 66.2273C62.1213 67.0061 62.0208 69.2168 59.2323 69.2168C58.0767 69.2168 57.0467 68.8902 57.0467 67.5588C57.0467 66.2524 58.0516 65.8756 59.1569 65.6495C60.2623 65.4486 61.5184 65.4234 62.1213 64.8959V66.2273ZM57.4487 62.2581C57.5743 60.8513 58.4535 60.2987 59.8101 60.2987C61.0662 60.2987 62.1213 60.5247 62.1213 62.0572C62.1213 63.5142 60.0864 63.4388 57.9009 63.7654C55.6902 64.0669 53.4795 64.7703 53.4795 67.7095C53.4795 70.3724 55.439 71.6033 57.9009 71.6033C59.4835 71.6033 61.1415 71.1763 62.272 69.9956C62.2971 70.4226 62.3976 70.8497 62.5232 71.2516H66.1407C65.8141 70.7241 65.6885 69.5434 65.6885 68.3626V61.605C65.6885 58.4899 62.5735 57.9121 59.986 57.9121C57.0719 57.9121 54.0824 58.917 53.8814 62.2581H57.4487Z" fill="white"/>
<path d="M68.1904 71.2516H71.7577V65.3983C71.7577 63.1123 72.6621 61.2281 75.2747 61.2281C75.7018 61.2281 76.2293 61.2784 76.5559 61.3538V58.0377C76.3298 57.9624 76.0283 57.9121 75.7771 57.9121C74.0437 57.9121 72.2852 59.0426 71.6321 60.6755H71.5818V58.2638H68.1904V71.2516Z" fill="white"/>
<path d="M87.7942 71.2512H91.1856V53.3145H87.6183V59.846H87.5681C86.7642 58.5648 85.2569 57.9117 83.7245 57.9117C79.906 57.9117 77.9717 61.1524 77.9717 64.6442C77.9717 68.2366 79.8809 71.6029 83.7999 71.6029C85.4579 71.6029 86.9149 71 87.7439 69.5932H87.7942V71.2512ZM87.7439 64.7196C87.7439 66.8549 87.0405 68.9149 84.6791 68.9149C82.4684 68.9149 81.5389 66.7796 81.5389 64.7447C81.5389 62.6094 82.3428 60.5997 84.6791 60.5997C86.9903 60.5997 87.7439 62.6094 87.7439 64.7196Z" fill="white"/>
<path d="M92.7217 67.0312C92.8724 70.4729 95.8116 71.6033 98.8262 71.6033C101.791 71.6033 104.755 70.498 104.755 67.0815C104.755 64.6698 102.72 63.9161 100.635 63.4388C98.6001 62.9615 96.5904 62.7857 96.5904 61.5045C96.5904 60.4494 97.7711 60.2987 98.575 60.2987C99.8562 60.2987 100.911 60.6755 101.012 62.0572H104.403C104.127 58.8667 101.514 57.9121 98.6755 57.9121C95.887 57.9121 93.0231 58.7662 93.0231 62.0823C93.0231 64.3683 95.0831 65.0969 97.1431 65.549C99.7055 66.1017 101.188 66.4785 101.188 67.5588C101.188 68.8148 99.8813 69.2168 98.8513 69.2168C97.4445 69.2168 96.1382 68.5887 96.1131 67.0312H92.7217Z" fill="white"/>
<path d="M34.7354 94.2883H38.7297L40.1365 90.294H46.8439L48.2005 94.2883H52.2953L45.5878 76.3516H41.5433L34.7354 94.2883ZM43.5028 80.7729H43.553L45.8139 87.3548H41.1665L43.5028 80.7729Z" fill="white"/>
<path d="M65.4381 81.3009H62.0467V83.0343H61.9965C61.1423 81.527 59.836 80.9492 58.1278 80.9492C54.4851 80.9492 52.5508 84.014 52.5508 87.3803C52.5508 90.9476 54.2088 93.9119 58.1026 93.9119C59.6602 93.9119 61.2177 93.2587 61.9965 91.9022H62.0467V93.6105C62.0718 95.4694 61.1675 96.826 59.1829 96.826C57.9268 96.826 56.8466 96.3738 56.52 95.0424H52.9778C53.1537 98.0067 56.1432 99.2125 58.7055 99.2125C64.6845 99.2125 65.4381 95.5951 65.4381 93.4597V81.3009ZM59.007 91.2239C56.8214 91.2239 56.118 89.1891 56.118 87.3301C56.118 85.3957 56.9973 83.6372 59.007 83.6372C61.3182 83.6372 62.0467 85.5213 62.0467 87.6315C62.0467 89.4905 61.0418 91.2239 59.007 91.2239Z" fill="white"/>
<path d="M75.8674 89.2644C75.8674 90.0432 75.7669 92.2539 72.9784 92.2539C71.8228 92.2539 70.7928 91.9273 70.7928 90.5959C70.7928 89.2896 71.7977 88.9127 72.903 88.6866C74.0084 88.4857 75.2645 88.4605 75.8674 87.933V89.2644ZM71.1948 85.2952C71.3204 83.8884 72.1996 83.3358 73.5562 83.3358C74.8123 83.3358 75.8674 83.5619 75.8674 85.0943C75.8674 86.5513 73.8325 86.476 71.647 86.8025C69.4363 87.104 67.2256 87.8074 67.2256 90.7466C67.2256 93.4095 69.1851 94.6404 71.647 94.6404C73.2296 94.6404 74.8876 94.2134 76.0181 93.0327C76.0432 93.4597 76.1437 93.8868 76.2693 94.2887H79.8868C79.5602 93.7612 79.4346 92.5805 79.4346 91.3998V84.6421C79.4346 81.527 76.3196 80.9492 73.7321 80.9492C70.818 80.9492 67.8285 81.9541 67.6275 85.2952H71.1948Z" fill="white"/>
<path d="M82.0371 94.2883H85.6044V81.3005H82.0371V94.2883ZM85.6044 76.3516H82.0371V79.2908H85.6044V76.3516Z" fill="white"/>
<path d="M88.1562 94.2887H91.7235V87.4808C91.7235 84.843 92.5525 83.7628 94.4869 83.7628C96.1449 83.7628 96.7729 84.8179 96.7729 86.9533V94.2887H100.34V86.3001C100.34 83.0845 99.3856 80.9492 95.5922 80.9492C94.0849 80.9492 92.5274 81.6526 91.623 83.1097H91.5476V81.3009H88.1562V94.2887Z" fill="white"/>
<path d="M101.902 90.0683C102.053 93.51 104.992 94.6404 108.007 94.6404C110.971 94.6404 113.936 93.5351 113.936 90.1186C113.936 87.7069 111.901 86.9533 109.816 86.4759C107.781 85.9986 105.771 85.8228 105.771 84.5416C105.771 83.4865 106.952 83.3358 107.756 83.3358C109.037 83.3358 110.092 83.7126 110.192 85.0943H113.584C113.307 81.9038 110.695 80.9492 107.856 80.9492C105.068 80.9492 102.204 81.8034 102.204 85.1194C102.204 87.4054 104.264 88.134 106.324 88.5862C108.886 89.1388 110.368 89.5157 110.368 90.5959C110.368 91.852 109.062 92.2539 108.032 92.2539C106.625 92.2539 105.319 91.6259 105.294 90.0683H101.902Z" fill="white"/>
<path d="M120.542 77.4082H116.975V81.302H114.814V83.6886H116.975V91.3506C116.975 93.9381 118.884 94.4406 121.07 94.4406C121.773 94.4406 122.552 94.4155 123.155 94.315V91.5265C122.778 91.6018 122.426 91.627 122.049 91.627C120.844 91.627 120.542 91.3255 120.542 90.1197V83.6886H123.155V81.302H120.542V77.4082Z" fill="white"/>
<path d="M35.8271 117.357H39.7712V109.619H47.0313V117.357H50.9754V99.4199H47.0313V106.303H39.7712V99.4199H35.8271V117.357Z" fill="white"/>
<path d="M65.4964 104.369H61.9292V111.177C61.9292 113.815 61.1002 114.895 59.1658 114.895C57.5078 114.895 56.8798 113.84 56.8798 111.705V104.369H53.3125V112.358C53.3125 115.573 54.2671 117.709 58.0605 117.709C59.5678 117.709 61.1253 117.005 62.0297 115.548H62.105V117.357H65.4964V104.369Z" fill="white"/>
<path d="M67.7871 117.359H71.3544V109.823C71.3544 107.285 73.0626 106.833 73.766 106.833C76.027 106.833 75.9265 108.567 75.9265 110.074V117.359H79.4937V110.124C79.4937 108.491 79.8706 106.833 81.8803 106.833C83.9151 106.833 84.0658 108.265 84.0658 109.998V117.359H87.6331V108.667C87.6331 105.301 85.6485 104.02 82.8851 104.02C81.0764 104.02 79.7198 105.05 78.9662 106.18C78.2628 104.622 76.8057 104.02 75.1728 104.02C73.4897 104.02 72.1331 104.798 71.2036 106.13H71.1534V104.371H67.7871V117.359Z" fill="white"/>
<path d="M98.0129 112.335C98.0129 113.114 97.9124 115.324 95.1239 115.324C93.9683 115.324 92.9383 114.998 92.9383 113.666C92.9383 112.36 93.9432 111.983 95.0485 111.757C96.1539 111.556 97.41 111.531 98.0129 111.003V112.335ZM93.3403 108.366C93.4659 106.959 94.3451 106.406 95.7017 106.406C96.9578 106.406 98.0129 106.632 98.0129 108.165C98.0129 109.622 95.978 109.546 93.7925 109.873C91.5818 110.174 89.3711 110.878 89.3711 113.817C89.3711 116.48 91.3306 117.711 93.7925 117.711C95.3751 117.711 97.0332 117.284 98.1636 116.103C98.1887 116.53 98.2892 116.957 98.4148 117.359H102.032C101.706 116.831 101.58 115.651 101.58 114.47V107.712C101.58 104.597 98.4651 104.02 95.8776 104.02C92.9635 104.02 89.974 105.024 89.773 108.366H93.3403Z" fill="white"/>
<path d="M104.08 117.359H107.647V110.551C107.647 107.913 108.476 106.833 110.411 106.833C112.069 106.833 112.697 107.888 112.697 110.024V117.359H116.264V109.37C116.264 106.155 115.309 104.02 111.516 104.02C110.009 104.02 108.451 104.723 107.547 106.18H107.471V104.371H104.08V117.359Z" fill="white"/>
<path d="M118.555 117.357H122.122V104.369H118.555V117.357ZM122.122 99.4199H118.555V102.359H122.122V99.4199Z" fill="white"/>
<path d="M129.687 100.477H126.119V104.37H123.959V106.757H126.119V114.419C126.119 117.007 128.029 117.509 130.214 117.509C130.918 117.509 131.696 117.484 132.299 117.383V114.595C131.923 114.67 131.571 114.695 131.194 114.695C129.988 114.695 129.687 114.394 129.687 113.188V106.757H132.299V104.37H129.687V100.477Z" fill="white"/>
<path d="M147.115 104.369H143.422L140.583 113.262H140.533L137.594 104.369H133.775L138.347 116.553C138.749 117.583 138.348 118.864 137.117 118.99C136.413 119.015 135.71 118.914 135.031 118.864V121.803C135.76 121.879 136.489 121.929 137.217 121.929C139.679 121.929 140.91 121.075 141.689 118.99L147.115 104.369Z" fill="white"/>
</svg>
