<svg width="20" height="20" viewBox="0 0 20 20" fill="none" xmlns="http://www.w3.org/2000/svg">
<g clip-path="url(#clip0_348_821)">
<path d="M16.9315 3.63474C15.6347 3.03921 14.2662 2.61442 12.8602 2.37099C12.8475 2.36884 12.8344 2.37069 12.8228 2.37629C12.8111 2.38188 12.8015 2.39095 12.7952 2.40224C12.619 2.71474 12.424 3.12349 12.2877 3.44349C10.7722 3.21369 9.23072 3.21369 7.71521 3.44349C7.56387 3.08672 7.39191 2.73905 7.20021 2.40224C7.19393 2.39095 7.18431 2.38188 7.17267 2.37629C7.16103 2.37069 7.14795 2.36884 7.13521 2.37099C5.72896 2.61349 4.36021 3.03849 3.06396 3.63474C3.05281 3.63888 3.04351 3.64685 3.03771 3.65724C0.445211 7.53099 -0.266039 11.3097 0.0827111 15.041C0.0852111 15.0593 0.0939611 15.0747 0.108961 15.0872C1.61892 16.205 3.30742 17.0588 5.10271 17.6122C5.11539 17.6162 5.12901 17.6161 5.1416 17.6118C5.15419 17.6075 5.16509 17.5994 5.17271 17.5885C5.55855 17.0635 5.89938 16.5097 6.19521 15.9272C6.20136 15.9152 6.20347 15.9016 6.20121 15.8883C6.19896 15.875 6.19247 15.8628 6.18271 15.8535L6.16021 15.8397C5.62191 15.6322 5.10037 15.3835 4.60021 15.096C4.58625 15.0881 4.57587 15.0751 4.57121 15.0597C4.56656 15.0444 4.56799 15.0278 4.57521 15.0135L4.59396 14.9897C4.69979 14.9106 4.80313 14.8293 4.90396 14.746C4.9128 14.7389 4.92339 14.7343 4.93462 14.7328C4.94585 14.7312 4.95729 14.7328 4.96771 14.7372C8.24146 16.2322 11.7852 16.2322 15.019 14.7372C15.0297 14.7323 15.0416 14.7305 15.0534 14.732C15.0651 14.7336 15.0761 14.7384 15.0852 14.746C15.186 14.8293 15.2894 14.9106 15.3952 14.9897C15.404 14.9958 15.4111 15.0039 15.4159 15.0135C15.4206 15.023 15.4229 15.0336 15.4224 15.0443C15.4218 15.0549 15.4186 15.0652 15.413 15.0743C15.4074 15.0834 15.3995 15.0908 15.3902 15.096C14.8922 15.3881 14.3698 15.6365 13.829 15.8385C13.8203 15.8416 13.8125 15.8466 13.806 15.8531C13.7996 15.8595 13.7946 15.8674 13.7915 15.876C13.7884 15.8843 13.7872 15.8932 13.7878 15.902C13.7885 15.9108 13.791 15.9194 13.7952 15.9272C14.0952 16.5085 14.439 17.0635 14.8165 17.5885C14.8241 17.5994 14.835 17.6075 14.8476 17.6118C14.8602 17.6161 14.8738 17.6162 14.8865 17.6122C16.6853 17.0618 18.3768 16.2078 19.8877 15.0872C19.8952 15.0819 19.9015 15.075 19.906 15.067C19.9105 15.059 19.9133 15.0501 19.914 15.041C20.3315 10.7272 19.2152 6.97974 16.9565 3.65849C16.9545 3.65282 16.9512 3.6477 16.9469 3.64357C16.9425 3.63943 16.9372 3.63641 16.9315 3.63474ZM6.68396 12.7685C5.69771 12.7685 4.88646 11.8635 4.88646 10.7535C4.88646 9.64349 5.68271 8.73724 6.68396 8.73724C7.69271 8.73724 8.49646 9.64974 8.48146 10.7535C8.48146 11.8635 7.68521 12.7685 6.68396 12.7685ZM13.329 12.7685C12.344 12.7685 11.5315 11.8635 11.5315 10.7535C11.5315 9.64349 12.3277 8.73724 13.329 8.73724C14.3377 8.73724 15.1427 9.64974 15.1265 10.7535C15.1265 11.8635 14.3377 12.7685 13.329 12.7685Z" fill="#0B0B0B"/>
</g>
<defs>
<clipPath id="clip0_348_821">
<rect width="20" height="20" fill="white"/>
</clipPath>
</defs>
</svg>
