<svg width="109" height="60" viewBox="0 0 109 60" fill="none" xmlns="http://www.w3.org/2000/svg">
<path d="M76.4167 17.6295V10.3709L69.158 17.6295L65.94 14.1212L66.6658 13.5889C67.5922 12.9119 68.4085 12.0957 69.0854 11.1693C69.8791 10.0867 70.3185 8.78526 70.3437 7.44318C70.3205 6.47766 70.1004 5.52701 69.6967 4.64961C69.293 3.77221 68.7142 2.98654 67.9961 2.34083C67.2778 1.69511 66.4352 1.20295 65.52 0.894561C64.6048 0.586168 63.6361 0.468041 62.6735 0.547428C61.5161 0.540025 60.371 0.785148 59.3178 1.26571C58.2648 1.74627 57.3292 2.45071 56.5762 3.32993C55.63 4.55506 55.1268 6.06468 55.1488 7.61256C55.3231 9.80563 56.3165 11.8527 57.9312 13.3469L58.1974 13.6615C56.885 14.3736 55.7841 15.4201 55.0065 16.6948C54.229 17.9696 53.8021 19.4273 53.7695 20.9202C53.8278 21.9431 54.0891 22.9442 54.5382 23.8651C54.9875 24.7859 55.6155 25.6082 56.3857 26.2838C57.156 26.9595 58.053 27.4751 59.0245 27.8003C59.9961 28.1258 61.0227 28.2543 62.0445 28.1789C63.3452 28.1581 64.6285 27.8752 65.8174 27.3472C67.0064 26.8192 68.0767 26.0571 68.9645 25.1061L71.2631 27.5256H78.788L72.739 21.1621L76.4167 17.6295ZM64.706 22.2268C64.0172 22.7783 63.1685 23.0925 62.2865 23.1219C61.9372 23.1349 61.5891 23.0778 61.2624 22.9538C60.9357 22.8298 60.6371 22.6415 60.3845 22.4001C60.1318 22.1588 59.9301 21.8691 59.7914 21.5483C59.6525 21.2278 59.5795 20.8825 59.5765 20.5331C59.5801 19.8605 59.8007 19.2071 60.2057 18.6699C60.5812 18.1771 61.03 17.7446 61.5364 17.3876L65.4561 21.5976L64.827 22.1783C64.827 22.1783 64.7544 22.1783 64.706 22.2268ZM62.7462 5.28977C63.0287 5.28003 63.3102 5.32727 63.5741 5.42868C63.8378 5.5301 64.0785 5.68361 64.2818 5.88006C64.485 6.07651 64.6467 6.31187 64.757 6.57211C64.8672 6.83236 64.924 7.11214 64.9238 7.3948C64.9172 7.77301 64.8262 8.145 64.6577 8.4836C64.376 9.01001 63.9687 9.45879 63.4721 9.79017L62.5284 10.5886L61.972 10.0079C61.2532 9.38991 60.788 8.5283 60.6654 7.58836C60.6491 7.17818 60.7588 6.77286 60.98 6.42697C61.147 6.09778 61.3987 5.81896 61.709 5.61911C62.0194 5.41927 62.3774 5.30561 62.7462 5.28977Z" fill="white"/>
<path d="M82.9258 27.6936H92.6041C95.3536 27.7542 98.0639 27.0326 100.419 25.6128C102.244 24.3868 103.719 22.707 104.699 20.7388C105.679 18.7705 106.13 16.5813 106.008 14.3859C106.13 12.6016 105.868 10.8119 105.24 9.13745C104.612 7.46301 103.631 5.94277 102.366 4.67927C101.1 3.41577 99.5779 2.43839 97.9024 1.81304C96.2268 1.18768 94.4365 0.928904 92.6525 1.05415H82.9742V27.6693L82.9258 27.6936ZM89.0474 6.88529H92.3379C93.3342 6.80744 94.3352 6.95092 95.2695 7.30545C96.2038 7.65999 97.0481 8.21681 97.7418 8.93599C98.4355 9.65518 98.9616 10.5189 99.2822 11.4653C99.6029 12.4118 99.7104 13.4174 99.5966 14.4102C99.7109 15.4019 99.6038 16.4068 99.2829 17.352C98.9622 18.2975 98.4356 19.1599 97.7414 19.8773C97.0471 20.5947 96.2024 21.1493 95.2681 21.5009C94.3336 21.8525 93.3329 21.9925 92.3379 21.9108H89.0474V6.88529Z" fill="white"/>
<path d="M106.976 59.248L97.0799 32.6328H90.0873L80.0703 59.248H86.5306L88.4177 53.9008H98.4106L100.298 59.248H106.976ZM96.4507 48.2874H90.4502L93.4747 39.7462L96.4507 48.2874Z" fill="white"/>
<path d="M64.9223 37.8318C65.9059 37.7765 66.889 37.9485 67.7953 38.3345C68.7017 38.7205 69.507 39.3103 70.1486 40.0578C70.59 40.6123 70.9411 41.2328 71.1889 41.8967L71.4067 42.4533L77.2863 40.3967L77.0927 39.816C76.7954 38.9693 76.4058 38.1578 75.9313 37.3964C74.6761 35.6667 73.0166 34.2705 71.0976 33.33C69.1784 32.3894 67.0583 31.9331 64.9223 32.0007C63.0907 31.9643 61.2707 32.299 59.5718 32.9847C57.8731 33.6704 56.3307 34.6928 55.0376 35.9905C53.7444 37.2881 52.7274 38.8341 52.0476 40.5353C51.3679 42.2364 51.0396 44.0575 51.0823 45.889C50.9993 47.6978 51.2881 49.5045 51.9313 51.1971C52.5744 52.8898 53.5581 54.4325 54.8213 55.7298C56.0846 57.0271 57.6006 58.0514 59.2756 58.7393C60.9506 59.4271 62.7488 59.764 64.5593 59.729C65.9186 59.8015 67.2768 59.5675 68.5333 59.044C69.7898 58.5204 70.9124 57.7208 71.818 56.7045L72.1567 59.1241H77.1653V44.897H63.5189V50.1474H71.4067C70.931 51.4138 70.0537 52.4897 68.909 53.2107C67.7643 53.9315 66.415 54.2578 65.0674 54.1397C63.567 54.1904 62.0863 53.7851 60.8207 52.9774C59.5551 52.1697 58.5641 50.9974 57.9781 49.6151C57.511 48.4461 57.2807 47.1961 57.3006 45.9374C57.2197 44.8933 57.3576 43.8438 57.7054 42.8561C58.0533 41.8683 58.6036 40.964 59.321 40.2011C60.0383 39.4381 60.9071 38.8334 61.8716 38.4254C62.8361 38.0174 63.8751 37.8153 64.9223 37.8318Z" fill="white"/>
<path d="M49.7766 19.8064C49.7792 18.3283 49.353 16.8811 48.55 15.64C47.747 14.399 46.6014 13.4174 45.252 12.8139C44.2063 12.2959 43.089 11.9371 41.9373 11.7493L38.5014 11.0719C38.2633 11.0352 38.0286 10.9786 37.7999 10.9025C37.2963 10.7962 36.845 10.5188 36.523 10.1173C36.201 9.71592 36.028 9.21529 36.0336 8.70069C36.0813 8.29269 36.2097 7.89827 36.4114 7.5404C36.613 7.18252 36.8839 6.86835 37.2082 6.61615C37.5324 6.36395 37.9036 6.17877 38.3002 6.07142C38.6966 5.96405 39.1104 5.93663 39.5177 5.99078C40.1424 5.98675 40.7636 6.08482 41.3566 6.28112C41.9073 6.4675 42.4044 6.78519 42.805 7.20676C43.2054 7.62832 43.4973 8.14108 43.6552 8.70069L43.8246 9.28137L49.3169 7.73286L49.196 7.20056C48.712 5.19232 46.7764 0.522556 39.5177 0.522556C38.3133 0.437363 37.1042 0.594042 35.9613 0.983363C34.8183 1.37269 33.765 1.98677 32.863 2.78947C31.9612 3.59216 31.229 4.56722 30.7097 5.65722C30.1904 6.7472 29.8946 7.9301 29.8394 9.1362C29.8772 11.1082 30.6369 12.9979 31.9747 14.4471C33.3124 15.8964 35.1354 16.8047 37.0982 16.9999L40.7033 17.6773C42.4212 17.9919 43.4132 18.9113 43.4132 20.0969C43.4213 20.4704 43.3373 20.8403 43.1684 21.1737C42.9996 21.507 42.7513 21.7937 42.4453 22.0083C41.675 22.5027 40.771 22.7479 39.8564 22.71C38.6713 22.8176 37.4882 22.4847 36.533 21.775C35.5779 21.0653 34.9176 20.0286 34.6786 18.8629V18.2337L29.041 19.5887V20.1453C29.6459 23.8956 32.8397 28.2507 39.8806 28.2507H40.2194H40.9453H41.8404L42.6873 28.0571L43.5583 27.8153C43.838 27.725 44.1126 27.6201 44.381 27.5007C44.6614 27.3944 44.9362 27.2733 45.2037 27.1377C45.4596 27.0077 45.7026 26.8537 45.9296 26.678C46.1939 26.5401 46.445 26.3781 46.6796 26.1941C46.8973 26.0247 47.0667 25.8311 47.2603 25.6619C47.5039 25.4544 47.7304 25.228 47.9377 24.9843C48.078 24.8209 48.1997 24.6423 48.3007 24.452C48.53 24.1647 48.7324 23.8569 48.9056 23.5326C48.9056 23.5326 48.9056 23.339 49.0266 23.2423C49.5472 22.1733 49.8043 20.9951 49.7766 19.8064Z" fill="white"/>
<path d="M43.2193 48.5012C44.378 48.0875 45.4283 47.4175 46.2921 46.5414C47.6743 45.0319 48.4197 43.0468 48.373 41.0006C48.4057 39.8654 48.201 38.7358 47.7719 37.6842C47.3427 36.6326 46.6986 35.6824 45.8808 34.8942C45.0631 34.1061 44.0897 33.4975 43.023 33.1074C41.9564 32.7172 40.82 32.5544 39.6867 32.6289H29.1133V59.2441H35.2347V49.4206H37.0979V49.5659L41.7433 59.2441H48.5181L43.2193 48.5012ZM35.2347 37.9762H38.5496C40.8481 37.9762 42.1547 39.0892 42.1547 41.0489C42.1547 43.0088 40.7756 44.1218 38.5496 44.1218H35.2347V37.9762Z" fill="white"/>
<path d="M16.8465 32.6328V49.1101C16.9232 49.7208 16.8635 50.341 16.6716 50.9258C16.4799 51.5107 16.1606 52.0457 15.7372 52.4924C15.3136 52.939 14.7963 53.2861 14.2225 53.5088C13.6486 53.7314 13.0326 53.824 12.4186 53.7798C11.8106 53.8128 11.2027 53.712 10.6379 53.4844C10.073 53.2568 9.56504 52.908 9.14971 52.4627C8.73438 52.0174 8.42184 51.4864 8.23414 50.9071C8.04644 50.3277 7.98816 49.7142 8.0634 49.1101V32.6328H1.82092V49.5698C1.7306 50.9677 1.94479 52.3684 2.4487 53.6754C2.95261 54.9824 3.73423 56.1645 4.73957 57.14C5.74491 58.1154 6.95003 58.861 8.27166 59.3251C9.59327 59.7894 10.9999 59.9612 12.3944 59.8287C13.8794 59.8422 15.3548 59.5882 16.7496 59.0787C18.6783 58.3815 20.329 57.0782 21.4545 55.3638C22.5799 53.6495 23.1195 51.6165 22.9922 49.5698V32.6328H16.8465Z" fill="white"/>
<path d="M16.9429 2.02433C15.175 1.38351 13.3067 1.06394 11.4263 1.08071H1.74805V27.6959H11.4263C13.2112 27.824 15.0028 27.5683 16.6806 26.9463C18.3584 26.3242 19.8836 25.3499 21.1536 24.0892C22.4234 22.8284 23.4087 21.3103 24.043 19.637C24.6773 17.9637 24.9459 16.174 24.8307 14.3883C25.0036 11.7561 24.3317 9.13752 22.913 6.91369C21.4943 4.68986 19.4027 2.97694 16.9429 2.02433ZM18.3946 14.4124C18.5089 15.4043 18.4019 16.409 18.081 17.3544C17.7602 18.2999 17.2337 19.1623 16.5394 19.8797C15.8452 20.5972 15.0004 21.1516 14.066 21.5033C13.1317 21.8549 12.1309 21.9949 11.136 21.9132H7.91793V6.88766H11.2085C12.7079 6.84893 14.1865 7.2438 15.467 8.02486C16.4559 8.75466 17.2432 9.72359 17.7553 10.8408C18.2673 11.9581 18.4873 13.187 18.3946 14.4124Z" fill="white"/>
</svg>
