<svg width="200" height="167" viewBox="0 0 200 167" fill="none" xmlns="http://www.w3.org/2000/svg">
<g clip-path="url(#clip0_348_808)">
<path d="M194.395 110.417L186.95 97.3626L150.941 119.464L190.936 68.1487L196.983 64.5733L195.487 62.3085L198.234 58.7713L185.614 48.1851L179.837 55.6031L63.2366 124.35L106.347 72.1058L186.644 27.7506L179.015 12.8892L135.279 37.039L156.816 10.9552L144.478 0L96.0078 58.7331L47.869 85.3386L84.7243 36.2374L107.819 24.1243L100.484 9.09752L33.2005 44.3934L51.5484 19.9255L38.7318 9.58103L0 61.2397L0.600969 61.7232L7.83712 76.5719L50.7757 54.038L11.6392 106.167L18.0536 111.346L21.8679 118.777L67.0755 93.7999L17.2932 154.136L29.6314 165.091L32.1089 162.089L152.205 91.0516L112.332 142.227L112.982 142.774L112.921 142.812L121.187 157.304L174.22 124.744L153.799 157.953L167.486 167L200 114.133L194.395 110.417Z" fill="#0B0B0B"/>
</g>
<defs>
<clipPath id="clip0_348_808">
<rect width="200" height="167" fill="white"/>
</clipPath>
</defs>
</svg>
