<svg width="32" height="32" viewBox="0 0 32 32" fill="none" xmlns="http://www.w3.org/2000/svg">
<g clip-path="url(#clip0_348_619)">
<path d="M11.5863 27.0002H6C5.73478 27.0002 5.48043 26.8948 5.29289 26.7073C5.10536 26.5197 5 26.2654 5 26.0002V20.4139C5.00012 20.149 5.10532 19.8951 5.2925 19.7077L20.7075 4.29266C20.895 4.10527 21.1493 4 21.4144 4C21.6795 4 21.9337 4.10527 22.1213 4.29266L27.7075 9.87516C27.8949 10.0627 28.0002 10.3169 28.0002 10.582C28.0002 10.8471 27.8949 11.1014 27.7075 11.2889L12.2925 26.7077C12.1051 26.8948 11.8511 27 11.5863 27.0002Z" stroke="black" stroke-width="3" stroke-linecap="round" stroke-linejoin="round"/>
<path d="M17 8L24 15" stroke="black" stroke-width="3" stroke-linecap="round" stroke-linejoin="round"/>
<path d="M20.5 11.5L9.5 22.5" stroke="black" stroke-width="3" stroke-linecap="round" stroke-linejoin="round"/>
<path d="M13 26L6 19" stroke="black" stroke-width="3" stroke-linecap="round" stroke-linejoin="round"/>
</g>
<defs>
<clipPath id="clip0_348_619">
<rect width="32" height="32" fill="white"/>
</clipPath>
</defs>
</svg>
