<svg width="121" height="60" viewBox="0 0 121 60" fill="none" xmlns="http://www.w3.org/2000/svg">
<g clip-path="url(#clip0_348_696)">
<path d="M66.5281 1.46998C66.9426 1.32676 67.5231 0.0981164 68.0959 0.173493C68.3371 0.203644 69.3019 2.13329 69.3019 2.13329C77.0808 2.51771 86.6839 11.9474 87.92 12.9046C88.5155 13.3644 91.0331 15.965 95.6311 17.9851C97.523 18.8142 99.4301 19.176 101.194 19.0403C103.546 18.8745 106.176 16.8092 107.789 13.9976C109.817 10.4775 110.684 4.34184 116.541 0.866961C117.355 0.384549 119.217 -0.700879 120.287 0.663443C121.154 1.77902 120.438 3.61068 119.541 4.48505C118.968 5.0353 117.943 5.60063 115.975 6.52023C115.312 6.83681 114.227 7.65088 113.804 7.98254C111.701 9.58053 110.179 13.2212 108.49 17.2011C108.49 17.2011 107.767 19.1534 104.578 21.2639C104.043 21.6107 104.533 21.9046 105.114 22.6509C105.86 23.6459 107.367 27.6861 107.171 33.8368C107.141 34.9298 107.578 35.4046 108.076 36.2941C108.943 37.8393 110.639 37.4926 110.601 39.5127C110.541 42.2338 112.546 42.8067 111.905 44.0654C111.438 44.9775 111.596 45.8594 111.603 46.7564C111.603 47.2087 111.845 47.8644 110.91 47.8117C107.096 47.5855 107.352 42.4675 107.42 40.7036C107.48 40.47 107.307 40.0554 107.277 40.0328C107.088 39.8971 104.706 38.0504 104.556 37.8921C101.669 34.9524 99.7617 32.3142 98.6989 29.6006C97.9979 27.7991 97.2743 26.0127 96.0306 24.867C94.6437 23.6006 92.9401 22.8921 91.4477 22.877C80.8346 22.8242 78.6487 18.166 75.7617 15.8443C75.6713 15.784 75.4075 15.6333 75.2567 15.6258C75.0984 15.6333 74.9703 15.8217 74.8648 15.9122C73.7492 17.0805 72.6261 17.465 71.1185 17.465C67.5306 17.465 63.6713 14.3217 62.9929 15.0227C62.4728 15.5655 62.9251 16.6961 61.9678 16.877C60.5884 17.1559 59.1638 15.7916 59.2768 14.6383C59.4803 12.573 61.5984 11.97 63.4527 11.7589C64.9829 11.5931 66.2341 12.0152 66.5281 12.0454C67.3798 12.166 67.5306 11.1333 67.3874 10.4624C67.2291 9.73882 66.5582 9.58807 65.8497 9.37701C64.9904 9.12073 64.0406 9.83681 63.3924 9.61822C62.6462 9.34686 62.5859 8.96244 61.9602 8.41219C61.1688 7.71872 60.2492 7.53028 60.2567 6.55792C60.2567 5.66093 61.3497 5.58555 61.6587 4.75641C61.8246 4.34184 61.7718 3.91219 61.915 3.66344C62.2844 2.98505 62.9854 3.02274 63.5432 2.47249C64.3045 1.71872 64.6813 0.263946 65.0733 0.203644C65.4728 0.143343 66.1286 1.59812 66.5281 1.46998Z" fill="white"/>
<path fill-rule="evenodd" clip-rule="evenodd" d="M32.1857 55.0939L32.1933 30.8301H40.1832V57.5738C40.1832 58.8929 39.1355 59.9557 37.8239 59.9557H23.8491C22.545 59.9557 21.4822 58.8929 21.4822 57.5738V30.8301H29.4797V55.0939C29.4797 55.8401 30.0978 56.4356 30.829 56.4582C31.5677 56.4356 32.1857 55.8401 32.1857 55.0939ZM69.7084 30.8301C71.1405 30.8301 72.3089 31.9984 72.3089 33.4457V59.9557H64.3038V35.6391C64.3038 34.8929 63.6933 34.2974 62.9546 34.2974C62.2084 34.2974 61.6053 34.8778 61.5978 35.6165V59.9557H53.6229V35.6165C53.6079 34.8778 53.0048 34.2974 52.2586 34.2974C51.5199 34.2974 50.9169 34.8929 50.9094 35.6391V59.9557H42.9043V33.4457C42.9043 31.9984 44.0727 30.8301 45.5048 30.8301H69.7084ZM16.1455 52.6366H8.06515V59.9557H0.0751953V30.8301H16.1908C17.638 30.8301 18.7611 32.006 18.7611 33.4532V50.0135C18.7611 51.4683 17.5928 52.6366 16.1455 52.6366ZM10.7787 35.6843C10.7863 34.8778 10.1229 34.2974 9.42193 34.2974H8.06515V49.0336H9.42193C10.1305 49.0336 10.7863 48.4683 10.7787 47.6617V35.6843ZM85.726 59.9557V52.6441H83.0124V59.9557H75.0224V33.4457C75.0224 31.9984 76.1832 30.8301 77.6229 30.8301H91.1154C92.5551 30.8301 93.7159 31.9984 93.7159 33.4457V59.9557H85.726ZM85.726 49.0411V35.624C85.7109 34.8854 85.1154 34.3125 84.3692 34.3125C83.6305 34.3125 83.0199 34.908 83.0124 35.6467V49.0411H85.726Z" fill="white"/>
</g>
<defs>
<clipPath id="clip0_348_696">
<rect width="120.678" height="60" fill="white"/>
</clipPath>
</defs>
</svg>
