<svg width="28" height="28" viewBox="0 0 28 28" fill="none" xmlns="http://www.w3.org/2000/svg">
<path d="M26.2325 10.8525C25.7612 10.36 25.2738 9.8525 25.09 9.40625C24.92 8.9975 24.91 8.32 24.9 7.66375C24.8813 6.44375 24.8612 5.06125 23.9 4.1C22.9387 3.13875 21.5562 3.11875 20.3363 3.1C19.68 3.09 19.0025 3.08 18.5938 2.91C18.1488 2.72625 17.64 2.23875 17.1475 1.7675C16.285 0.93875 15.305 0 14 0C12.695 0 11.7162 0.93875 10.8525 1.7675C10.36 2.23875 9.8525 2.72625 9.40625 2.91C9 3.08 8.32 3.09 7.66375 3.1C6.44375 3.11875 5.06125 3.13875 4.1 4.1C3.13875 5.06125 3.125 6.44375 3.1 7.66375C3.09 8.32 3.08 8.9975 2.91 9.40625C2.72625 9.85125 2.23875 10.36 1.7675 10.8525C0.93875 11.715 0 12.695 0 14C0 15.305 0.93875 16.2837 1.7675 17.1475C2.23875 17.64 2.72625 18.1475 2.91 18.5938C3.08 19.0025 3.09 19.68 3.1 20.3363C3.11875 21.5562 3.13875 22.9387 4.1 23.9C5.06125 24.8612 6.44375 24.8813 7.66375 24.9C8.32 24.91 8.9975 24.92 9.40625 25.09C9.85125 25.2738 10.36 25.7612 10.8525 26.2325C11.715 27.0613 12.695 28 14 28C15.305 28 16.2837 27.0613 17.1475 26.2325C17.64 25.7612 18.1475 25.2738 18.5938 25.09C19.0025 24.92 19.68 24.91 20.3363 24.9C21.5562 24.8813 22.9387 24.8612 23.9 23.9C24.8612 22.9387 24.8813 21.5562 24.9 20.3363C24.91 19.68 24.92 19.0025 25.09 18.5938C25.2738 18.1488 25.7612 17.64 26.2325 17.1475C27.0613 16.285 28 15.305 28 14C28 12.695 27.0613 11.7162 26.2325 10.8525ZM14 22C13.7033 22 13.4133 21.912 13.1666 21.7472C12.92 21.5824 12.7277 21.3481 12.6142 21.074C12.5006 20.7999 12.4709 20.4983 12.5288 20.2074C12.5867 19.9164 12.7296 19.6491 12.9393 19.4393C13.1491 19.2296 13.4164 19.0867 13.7074 19.0288C13.9983 18.9709 14.2999 19.0007 14.574 19.1142C14.8481 19.2277 15.0824 19.42 15.2472 19.6666C15.412 19.9133 15.5 20.2033 15.5 20.5C15.5 20.8978 15.342 21.2794 15.0607 21.5607C14.7794 21.842 14.3978 22 14 22ZM15 15.91V16C15 16.2652 14.8946 16.5196 14.7071 16.7071C14.5196 16.8946 14.2652 17 14 17C13.7348 17 13.4804 16.8946 13.2929 16.7071C13.1054 16.5196 13 16.2652 13 16V15C13 14.7348 13.1054 14.4804 13.2929 14.2929C13.4804 14.1054 13.7348 14 14 14C15.6537 14 17 12.875 17 11.5C17 10.125 15.6537 9 14 9C12.3463 9 11 10.125 11 11.5V12C11 12.2652 10.8946 12.5196 10.7071 12.7071C10.5196 12.8946 10.2652 13 10 13C9.73478 13 9.48043 12.8946 9.29289 12.7071C9.10536 12.5196 9 12.2652 9 12V11.5C9 9.01875 11.2425 7 14 7C16.7575 7 19 9.01875 19 11.5C19 13.6725 17.28 15.4913 15 15.91Z" fill="black"/>
</svg>
