<svg width="27" height="30" viewBox="0 0 27 30" fill="none" xmlns="http://www.w3.org/2000/svg">
<path d="M18.0377 3.51235C18.0377 3.51235 17.6988 3.6092 17.1419 3.77868C17.0451 3.46393 16.8998 3.10075 16.7061 2.71336C16.0766 1.50278 15.1323 0.84906 14.0186 0.84906C13.946 0.84906 13.8733 0.84906 13.7765 0.873271C13.7523 0.824848 13.7038 0.800636 13.6796 0.752213C13.1954 0.219554 12.5659 -0.0225632 11.8153 0.00164853C10.3626 0.050072 8.90992 1.09118 7.74776 2.95548C6.92456 4.26292 6.29505 5.90931 6.12557 7.19254C4.45496 7.70098 3.2928 8.06416 3.26859 8.08837C2.42117 8.3547 2.39696 8.37891 2.30012 9.1779C2.22748 9.78319 0 26.8283 0 26.8283L18.3041 30V3.48814C18.1588 3.48814 18.0862 3.51235 18.0377 3.51235ZM13.8007 4.81979C12.8322 5.11033 11.7669 5.44929 10.7258 5.76404C11.0163 4.62609 11.5974 3.48814 12.2754 2.73758C12.5417 2.47125 12.9049 2.15649 13.3165 1.9628C13.7281 2.83442 13.8249 4.0208 13.8007 4.81979ZM11.8153 0.99433C12.1543 0.99433 12.4448 1.06697 12.687 1.21224C12.2996 1.40593 11.9122 1.72068 11.549 2.08386C10.629 3.07654 9.92682 4.62609 9.63627 6.10301C8.76465 6.36934 7.89303 6.63567 7.09404 6.87778C7.6267 4.55346 9.58785 1.04275 11.8153 0.99433ZM9.00677 14.3108C9.10362 15.8603 13.1954 16.1993 13.4375 19.8553C13.607 22.7365 11.9122 24.6976 9.46679 24.8429C6.51296 25.0366 4.89077 23.2933 4.89077 23.2933L5.52028 20.6301C5.52028 20.6301 7.14246 21.8649 8.4499 21.768C9.29731 21.7196 9.61206 21.0174 9.58785 20.5332C9.46679 18.4994 6.12557 18.6205 5.90767 15.2793C5.71397 12.4707 7.55406 9.63792 11.6216 9.37159C13.1954 9.27475 13.9944 9.66214 13.9944 9.66214L13.0743 13.1486C13.0743 13.1486 12.0332 12.6644 10.7984 12.7612C9.00677 12.8823 8.98256 14.0202 9.00677 14.3108ZM14.7692 4.52924C14.7692 3.80289 14.6723 2.76179 14.3334 1.89016C15.4471 2.10807 15.9798 3.34287 16.2219 4.09343C15.7861 4.21449 15.3018 4.35976 14.7692 4.52924Z" fill="black"/>
<path d="M18.8613 29.9512L26.4638 28.0627C26.4638 28.0627 23.1952 5.95738 23.171 5.81211C23.1468 5.66684 23.0257 5.56999 22.9047 5.56999C22.7836 5.56999 20.653 5.52157 20.653 5.52157C20.653 5.52157 19.3456 4.26256 18.8613 3.77832V29.9512Z" fill="black"/>
</svg>
