<svg width="170" height="36" viewBox="0 0 170 36" fill="none" xmlns="http://www.w3.org/2000/svg">
<path d="M91.9655 2.68073H97.8237V34.0331L78.0353 15.6126V33.0828H72.1771V1.80983L91.9655 20.2574V2.68073ZM62.9146 17.935C62.9146 26.9865 55.5527 34.3505 46.5033 34.3505C37.4518 34.3505 30.0899 26.9865 30.0899 17.935C30.0899 8.88354 37.4518 1.51953 46.5033 1.51953C55.5527 1.51953 62.9146 8.88354 62.9146 17.935ZM56.8998 17.935C56.8998 12.129 52.2278 7.40489 46.4762 7.40489C40.7245 7.40489 36.0797 12.129 36.0797 17.935C36.0797 23.741 40.7495 28.4652 46.4762 28.4652C52.2278 28.4652 56.8977 23.741 56.8977 17.935H56.8998ZM20.0902 18.1982C18.5322 17.0098 16.4751 16.0617 13.4405 15.0842C7.50292 13.1837 7.50292 11.7072 7.50292 10.9678C7.50292 9.27826 9.37629 7.53646 12.5424 7.53646C15.2073 7.53646 17.2666 8.85638 18.031 9.43698L18.4529 9.75443L23.177 6.55904L22.6486 5.95339C22.492 5.76752 18.8497 1.51953 12.5174 1.51953C9.48072 1.51953 6.68632 2.49694 4.65423 4.26381C2.62214 6.03275 1.46094 8.46166 1.46094 10.9929C1.46094 13.6871 2.64928 15.9551 4.96959 17.7241C6.5276 18.9104 8.58476 19.8606 11.6193 20.8359C17.5569 22.7114 17.5569 24.2151 17.5569 24.9544C17.5569 26.644 15.6835 28.3858 12.5174 28.3858C9.85247 28.3858 7.79323 27.0659 7.02883 26.4853L6.60697 26.1678L1.8828 29.3632L2.4112 29.9689C2.56993 30.1527 6.21225 34.3756 12.5174 34.3756C15.552 34.3756 18.3484 33.4003 20.3805 31.6313C22.4126 29.8624 23.5717 27.4084 23.5717 24.9022C23.5717 22.2352 22.4126 19.9943 20.0902 18.1982ZM107.138 18.0667C107.138 9.01516 114.5 1.65116 123.552 1.65116C132.601 1.65116 139.963 9.01516 139.963 18.0667C139.963 27.1182 132.601 34.4822 123.552 34.4822C114.5 34.4822 107.138 27.1182 107.138 18.0667ZM113.128 18.0667C113.128 23.8727 117.798 28.5968 123.525 28.5968C129.276 28.5968 133.921 23.8727 133.921 18.0667C133.921 12.2607 129.251 7.53442 123.525 7.53442C117.798 7.53442 113.128 12.2586 113.128 18.0646V18.0667ZM149.938 17.7743C151.494 18.9647 153.551 19.9129 156.587 20.8903C162.523 22.7908 162.523 24.2674 162.523 25.0067C162.523 26.6963 160.649 28.4381 157.483 28.4381C154.818 28.4381 152.761 27.1182 151.995 26.5376L151.573 26.2222L146.851 29.4155L147.377 30.0212C147.536 30.207 151.178 34.4278 157.485 34.4278C160.518 34.4278 163.314 33.4525 165.346 31.6836C167.379 29.9167 168.54 27.4878 168.54 24.9545C168.54 22.2624 167.351 19.9923 165.031 18.2254C163.473 17.037 161.416 16.0868 158.381 15.1114C152.444 13.2109 152.444 11.7323 152.444 10.993C152.444 9.30546 154.317 7.56367 157.483 7.56367C160.148 7.56367 162.207 8.88359 162.972 9.46418L163.394 9.77955L168.118 6.58626L167.59 5.98059C167.431 5.79472 163.788 1.57389 157.483 1.57389C154.449 1.57389 151.652 2.5492 149.62 4.31607C147.588 6.08502 146.429 8.53898 146.429 11.0473C146.454 13.7393 147.615 16.0074 149.938 17.7764V17.7743Z" fill="white"/>
</svg>
