<svg width="142" height="68" viewBox="0 0 142 68" fill="none" xmlns="http://www.w3.org/2000/svg">
<path d="M140.998 35.2233L140.938 34.9859C140.79 34.1849 140.612 33.3542 140.316 32.6126C138.952 29.2008 139.011 25.5518 139.041 22.3774C139.071 20.004 139.337 17.6307 139.575 15.3166C139.604 14.931 139.663 14.5156 139.693 14.1299C139.841 12.7356 139.456 11.4006 138.626 10.3919C137.885 9.50187 136.847 8.81953 135.958 8.67119C134.535 8.43386 133.319 9.1162 132.578 10.5996C132.282 11.2226 131.955 11.8456 131.451 12.6466L131.244 13.0026L130.918 12.7356C130.799 12.6466 130.71 12.5576 130.621 12.4686C130.473 12.3499 130.355 12.2312 130.236 12.1422C129.317 11.5192 128.516 11.3116 127.864 11.4896C127.331 11.6379 126.886 12.0532 126.56 12.7356C126.056 13.7443 125.374 14.575 124.425 15.2573C124.307 15.3463 124.129 15.465 123.892 15.6133C123.536 15.821 123.299 15.91 122.913 16.0583C122.735 16.1176 122.528 16.2066 122.291 16.3253C122.231 16.355 122.143 16.3846 122.083 16.4143C122.054 16.4143 122.024 16.444 121.994 16.444C121.757 16.533 121.49 16.6516 121.253 16.7407C121.046 16.8297 120.808 16.9187 120.571 16.978C120.334 17.0373 120.097 17.0373 119.83 17.0077C119.326 16.9483 118.881 16.711 118.555 16.3846C118.377 16.2363 118.229 16.0286 118.051 15.8803C117.903 15.7023 117.725 15.554 117.547 15.4056C117.192 15.109 116.806 14.842 116.391 14.6343C115.976 14.4266 115.531 14.3079 115.087 14.3376C114.642 14.3673 114.227 14.5453 113.842 14.8123C113.486 15.0793 113.13 15.376 112.774 15.7023C111.351 16.9187 110.047 18.224 108.861 19.648C107.646 21.0721 106.638 22.6147 105.541 24.1278C104.473 25.6408 103.376 27.1538 102.191 28.6075C100.945 30.0019 99.4039 31.9895 98.1291 33.3542L97.9808 33.5026V33.2949C97.9808 32.2566 98.0994 29.6458 98.1884 28.6075C98.307 27.5691 98.4255 26.5605 98.722 25.5518C98.8702 25.0474 99.1074 24.6024 99.226 24.0981C99.3446 23.6234 99.4039 23.0894 99.226 22.6147C99.137 22.3774 99.0185 22.1697 98.8406 21.9621C98.6924 21.7841 98.4848 21.6061 98.3069 21.3984C97.9512 21.0127 97.6251 20.627 97.21 20.3007C96.8246 19.9744 96.3503 19.737 95.8463 19.737C95.3423 19.737 94.868 20.004 94.6012 20.4194C94.4529 20.627 94.364 20.8644 94.2751 21.1017C94.2158 21.3391 94.1565 21.6061 94.1565 21.8434C94.0972 22.3477 94.0379 22.8817 94.0082 23.3861C93.86 25.4331 93.8007 27.5098 93.6228 29.5568C93.4746 31.6039 93.1782 34.6299 93.0596 36.677C93.0892 37.1813 93.2374 37.6856 93.4746 38.1306C93.7118 38.5757 94.0082 38.991 94.3937 39.347C94.7791 39.703 95.1941 39.97 95.6684 40.148C96.1428 40.326 96.6764 40.3557 97.1507 40.2667C97.6547 40.1777 98.0994 39.9107 98.5145 39.614C98.9295 39.3173 99.3446 38.991 99.73 38.6647C100.115 38.3087 100.471 37.9526 100.857 37.5966C101.212 37.2406 101.538 36.8253 101.864 36.4396C103.139 34.8376 104.681 33.1466 105.896 31.4852L105.956 31.4259L105.985 31.4852C106.282 31.9895 106.578 32.4939 106.875 32.9982C107.201 33.4729 107.527 33.9772 107.883 34.4519C108.594 35.4013 109.424 36.2319 110.373 36.9143C110.847 37.2406 111.381 37.5076 111.944 37.6263C112.507 37.745 113.1 37.6856 113.664 37.5076C114.197 37.3 114.701 36.9736 115.146 36.6176C115.591 36.2319 116.006 35.8166 116.391 35.3716C116.777 34.9266 117.103 34.4519 117.399 33.9476C117.696 33.4432 117.962 32.9092 118.2 32.3752C118.674 31.3072 119 30.1799 119.237 29.0228C119.741 26.7385 120.008 24.3948 120.364 22.0511V22.0214H120.393C121.046 21.8731 121.727 21.6951 122.38 21.4874C122.854 21.2797 123.358 21.0424 123.862 20.805C124.307 20.5974 125.641 19.9447 126.056 19.7074V20.2414C126.056 20.3304 126.056 20.4194 126.056 20.5084C126.056 20.6567 126.056 20.805 126.026 20.9534C125.819 21.9027 125.611 22.8224 125.404 23.7718C124.87 26.2341 124.307 28.7855 123.625 31.2479C123.151 33.0279 123.358 34.6893 124.247 35.7573C124.722 36.321 125.404 36.8253 126.145 36.7066C126.916 36.5583 127.568 36.0243 127.835 35.3123C128.339 33.8882 128.724 32.4346 129.08 31.0105C129.436 29.6755 129.702 28.5778 130.088 27.4505C130.829 25.1958 131.333 23.9498 131.926 22.4961C132.133 21.9917 132.282 21.6061 132.37 21.4281C132.963 20.004 133.497 18.4613 133.912 17.512L133.942 17.4527L133.971 17.423C134.06 17.334 134.179 17.2747 134.297 17.2747C134.357 17.2747 134.386 17.2747 134.446 17.3043C134.772 17.423 134.831 17.8087 134.831 17.8087V17.8977C134.861 18.046 134.89 18.224 134.861 18.402C134.149 23.4454 134.564 28.4888 136.165 33.4432C136.788 35.3716 137.766 36.4693 139.248 36.9143C139.812 37.0923 140.316 37.033 140.612 36.7363C141.027 36.41 141.146 35.8759 140.998 35.2233ZM115.057 27.5691C114.938 27.9845 114.701 28.9338 114.019 29.9425C113.604 30.5952 112.923 31.5742 112.27 31.4555C111.559 31.3369 111.203 30.0612 111.114 29.4382C110.966 28.3405 111.351 27.1241 111.618 26.3528C111.618 26.2935 111.648 26.2638 111.648 26.2341C111.648 26.2341 112.27 24.3948 113.427 23.1488C113.575 22.9707 113.812 22.7631 114.138 22.6147C114.375 22.4961 114.731 22.3181 114.968 22.4071C115.739 22.6444 115.62 25.4035 115.057 27.5691Z" fill="white"/>
<path fill-rule="evenodd" clip-rule="evenodd" d="M139.292 3.37677C140.097 3.37677 140.75 2.72393 140.75 1.91862C140.75 1.11331 140.097 0.460469 139.292 0.460469C138.486 0.460469 137.834 1.11331 137.834 1.91862C137.834 2.72393 138.486 3.37677 139.292 3.37677ZM139.292 3.83724C140.351 3.83724 141.21 2.97824 141.21 1.91862C141.21 0.858995 140.351 0 139.292 0C138.232 0 137.373 0.858995 137.373 1.91862C137.373 2.97824 138.232 3.83724 139.292 3.83724Z" fill="white"/>
<path d="M138.628 1.1733L139.232 1.07696C139.342 1.05942 139.435 1.06033 139.511 1.0797C139.587 1.09745 139.648 1.12655 139.696 1.16699C139.746 1.20555 139.783 1.25264 139.808 1.30827C139.834 1.36228 139.85 1.41596 139.859 1.46931C139.868 1.52428 139.866 1.57918 139.855 1.63401C139.844 1.68723 139.823 1.73782 139.793 1.78579C139.763 1.83188 139.724 1.87374 139.676 1.91135C139.628 1.94709 139.573 1.97335 139.509 1.99014L140.122 2.6957L139.831 2.74213L139.273 2.05512L139.014 2.09652L139.135 2.85317L138.902 2.89031L138.628 1.1733ZM138.981 1.8928L139.287 1.84405C139.332 1.83683 139.376 1.8265 139.419 1.81307C139.463 1.79777 139.5 1.7777 139.531 1.75289C139.564 1.72781 139.588 1.69581 139.603 1.65689C139.618 1.61635 139.621 1.56698 139.612 1.50878C139.602 1.45057 139.584 1.40536 139.558 1.37315C139.531 1.33931 139.498 1.31553 139.459 1.30181C139.422 1.28782 139.38 1.28121 139.334 1.28196C139.289 1.28084 139.244 1.28389 139.199 1.29112L138.893 1.33987L138.981 1.8928Z" fill="white"/>
<path d="M71.3585 44.5678C71.8328 43.9151 72.2775 43.2921 72.7518 42.5801C72.9001 42.3428 73.0779 42.1054 73.2558 41.8681C73.493 42.5504 73.8487 43.1438 74.3231 43.6481C74.3824 43.7075 75.7164 45.1315 77.6138 45.1908C77.6731 45.1908 77.7324 45.1908 77.8213 45.1908C78.1771 45.1908 78.7107 45.1315 79.1851 44.7755C79.3926 44.6271 79.5705 44.4195 79.689 44.1821L79.9559 43.7075C80.3413 43.0251 80.5488 42.6988 80.5784 42.6098C80.6377 42.4614 80.6674 42.4318 81.6161 40.9781L81.9125 40.5034C83.2169 38.486 83.5727 37.952 83.6616 37.8037C83.6913 37.7444 83.6913 37.7444 83.6913 37.7444L83.7802 37.6257C84.0174 37.329 84.2842 36.9137 84.5807 36.439C84.551 36.9434 84.4917 37.4774 84.4621 37.9817C84.1953 40.7704 84.3731 41.0671 87.1895 42.1054C87.2192 42.1054 87.2192 42.1054 87.2488 42.1351C87.2785 42.1351 87.3081 42.1648 87.3378 42.1648C87.5749 42.2538 87.7825 42.2834 88.0196 42.2834C88.7015 42.2834 89.2944 41.8978 89.5316 41.2748C89.6798 40.8891 89.7391 40.4441 89.7391 39.8804C89.7391 39.3761 89.7095 38.8421 89.6798 38.3377C89.6502 37.4774 89.5909 36.617 89.6502 35.7567C89.7984 33.947 89.8874 32.1669 89.9763 30.4166C90.0949 28.1322 90.2431 25.7885 90.4506 23.4151C90.5099 22.7328 90.5989 21.5758 90.6581 20.3891C90.7471 18.9651 90.836 17.5114 90.9546 16.651C91.1325 16.5917 91.3993 16.5324 91.6365 16.4434C91.7847 16.4137 91.9033 16.384 91.9922 16.3544C92.8816 16.0874 93.771 15.85 94.6604 15.583C96.202 15.138 97.7732 14.693 99.3445 14.2183C100.56 13.8623 101.775 13.536 102.961 13.2097C103.614 13.0317 104.236 12.8537 104.888 12.6756C106.578 12.201 107.794 11.8746 108.861 11.5483C111.262 10.866 112.863 10.4209 116.954 9.3826C118.763 8.93759 121.046 8.34425 123.477 7.72124C128.457 6.41588 131.244 5.55554 134.831 4.78419C135.454 4.63586 135.78 4.39852 135.928 3.89418C136.135 3.2415 136.017 2.47016 135.602 1.90648C135.216 1.37247 134.624 1.10547 133.971 1.10547C132.548 1.10547 131.036 1.43181 129.613 1.75815C129.169 1.84715 128.783 1.93615 128.368 2.02515C124.544 2.79649 118.111 4.63586 116.272 5.11053C113.96 5.73354 112.656 6.03021 111.411 6.32688C110.017 6.65322 108.683 6.94989 106.133 7.6619C102.368 8.67059 98.3958 9.7386 93.5635 10.9846C92.9113 11.1626 91.3993 11.4593 91.0435 11.5483C91.0732 10.955 91.1918 6.89056 91.3993 4.93253C91.429 4.48752 91.3993 4.10185 91.2511 3.77551C90.925 2.9745 90.3024 2.58882 90.1542 2.52949C89.5612 2.20315 89.0573 2.23282 88.1382 2.29215C87.3674 2.35149 87.071 2.44049 86.7448 2.58882C86.567 2.67783 86.478 2.70749 86.3891 2.76683C85.8258 3.18217 85.8851 4.99186 85.8851 5.08086C85.9148 5.76321 85.8851 6.44555 85.8258 7.12789C85.7962 7.54323 85.7665 7.92891 85.7665 8.34425C85.7072 10.2726 85.6776 11.3406 85.6479 12.112C85.6183 12.4383 85.6183 12.7053 85.6183 12.8833C84.2249 13.2097 82.8315 13.5953 81.4085 13.9513C80.193 14.2777 79.3629 14.515 78.266 14.8117C77.8213 14.9303 77.3173 15.0787 76.7244 15.227C74.916 15.7314 73.0779 16.2357 71.2399 16.7104C71.0323 16.829 70.9434 16.9774 70.9138 17.185C70.8841 17.6004 71.2102 18.1047 71.4177 18.2827C72.0403 18.7871 72.7815 19.1431 73.493 19.4694C73.8487 19.6474 74.2341 19.8254 74.6195 20.0034C75.6868 20.5968 76.8134 20.0924 77.4063 19.8551C77.5249 19.7958 77.6435 19.7364 77.7324 19.7364C79.8966 19.0837 82.4461 18.4607 85.5294 17.8377C85.4701 18.8761 85.4108 20.4484 85.3218 22.3768C85.2032 24.7502 85.1439 26.3225 85.1143 27.4202C84.9068 29.2596 84.3732 30.9803 83.4541 32.5526C83.1577 33.0866 82.6537 33.7986 82.2386 34.4216C81.201 35.9643 80.6674 36.706 79.9855 37.3587C79.3333 37.952 78.6218 38.486 77.8213 38.9014C77.6435 38.5157 77.5249 38.13 77.4656 37.7147C77.4063 37.418 77.4063 37.151 77.4063 36.4093C77.4063 36.261 77.4063 36.1127 77.4063 35.9643C77.5842 32.5823 77.7027 30.7429 78.0585 29.4672C78.5032 27.8652 77.851 27.1829 76.5762 26.5599C76.3687 26.4412 76.1315 26.3819 75.924 26.3522C75.8647 26.3225 75.8054 26.3225 75.7461 26.2929C75.3903 25.0765 74.3527 24.0678 72.9001 23.5931C71.3585 23.0888 69.7279 23.2965 68.6606 24.1568C68.4828 24.2755 68.3642 24.4535 68.2456 24.6315L68.216 24.6908C68.0084 25.0172 67.7713 25.3138 67.5637 25.6402C67.0597 26.3819 66.5261 27.1532 66.0518 27.9245C64.273 30.9803 63.0279 33.8876 62.2571 36.8544C62.1978 37.0917 62.1385 37.2697 62.0792 37.4477C62.0199 37.685 61.931 37.8927 61.842 38.3377C61.8124 38.3674 61.8124 38.4267 61.7827 38.4564C61.427 39.2871 61.1009 40.1177 60.6265 40.8297C60.1522 41.5714 59.6185 42.2538 59.0553 42.9361C58.492 43.6185 57.8991 44.2711 57.2765 44.8941C56.98 45.1908 56.6539 45.4578 56.2982 45.6952C55.9424 45.9325 55.5867 46.1105 55.2013 46.2292C54.8159 46.3775 54.4008 46.4665 54.0154 46.4962C53.5707 46.5258 53.1557 46.5258 52.7999 46.4665C52.4442 46.4072 52.1477 46.2588 51.9105 46.0215C51.6734 45.6655 51.4658 45.2798 51.3176 44.8941C51.288 44.8051 51.2583 44.7161 51.2287 44.5975C51.0804 43.9151 51.1397 43.1735 51.2583 42.4318C51.3769 41.5714 51.6141 40.7111 51.8512 39.8507C51.9698 39.4354 52.118 38.9904 52.2663 38.575C52.4145 38.1597 52.5627 37.7444 52.7703 37.329C53.126 36.528 53.5411 35.727 53.9561 34.926C54.1636 34.5403 54.3712 34.125 54.5787 33.7393C54.7862 33.3536 54.9937 32.9383 55.2309 32.5823C55.4681 32.1966 55.7052 31.8406 56.0017 31.5143C56.1203 31.3659 56.2685 31.2473 56.3871 31.1286C56.6539 30.9506 56.8911 30.8023 57.1876 30.6836L57.2172 30.6539C57.3654 30.5353 57.8101 30.2683 58.403 30.0606C58.907 29.8826 59.2035 29.4969 59.2628 29.0519C59.3221 28.5179 59.0553 27.9839 58.5216 27.6575C57.8991 27.2422 57.1283 26.8862 56.2982 26.6192C54.549 26.0555 53.0964 26.5005 52.0291 27.9542C51.703 28.3992 51.3769 28.9036 50.9618 29.5562C50.0132 31.1286 49.0941 32.9086 48.264 34.926C47.2561 37.3587 46.7817 38.7531 46.4556 41.7791C46.4556 41.8681 46.426 41.9868 46.426 42.1054C46.3963 42.2241 46.3963 42.3724 46.3667 42.5208C46.3074 42.8768 46.1888 43.3218 45.8627 43.7371C45.7441 43.8855 45.6255 44.0635 45.4773 44.2415C45.003 44.8941 44.3804 45.7248 43.1649 46.9708C42.3051 47.8609 41.7122 48.4245 41.4158 48.3059C41.2972 48.2762 40.9711 47.8905 41.1489 44.8941C41.3861 40.9484 41.5343 39.0201 41.8604 37.8037C42.2755 36.2907 41.8604 35.46 40.2596 34.6293C40.052 34.5107 39.7852 34.4513 39.5777 34.392C39.5184 34.3623 39.4295 34.3623 39.3702 34.3326C38.9848 33.0273 37.8286 31.9296 36.287 31.3956C34.6268 30.8319 32.848 31.0693 31.6621 32.0186C31.4843 32.1669 31.3657 32.3449 31.2174 32.5526L31.1582 32.612C30.921 32.968 30.6838 33.2943 30.4466 33.6503C29.8834 34.4513 29.3201 35.282 28.8161 36.1423C26.8891 39.4651 25.5254 42.6394 24.6953 45.8435C24.636 46.1105 24.5767 46.2885 24.5174 46.4665C24.3988 46.8818 24.2802 47.2675 24.0134 48.5135C23.717 49.9079 23.7762 51.2726 24.1913 52.9339C24.6656 54.803 25.8811 56.1083 27.8674 56.7907C28.7272 57.0873 29.498 57.2357 30.1798 57.2357C31.336 57.2357 32.2847 56.8203 33.0852 55.9896C33.6188 55.4556 34.0931 54.8326 34.5675 54.1503C35.0715 53.4383 35.5754 52.7263 36.1091 51.9846C36.287 51.7176 36.4648 51.4506 36.6724 51.1836C36.702 51.2429 36.7613 51.3319 36.7909 51.3912C36.9095 51.5692 36.9688 51.6879 37.0281 51.8066C37.6507 53.7349 39.3702 54.1503 41.2082 54.447C42.0383 54.5953 42.8684 54.2096 43.2835 53.4679C43.6096 52.8746 43.9357 52.2813 44.2321 51.6879C44.5286 51.1539 44.7954 50.5902 45.1215 50.0266C45.4476 49.4332 45.833 48.8399 46.2481 48.1872C46.3074 48.0685 46.3963 47.9499 46.4556 47.8312C46.4556 47.8312 46.4556 47.8609 46.4853 47.8609L46.7224 48.3355C46.8707 48.6619 47.0485 48.9882 47.2857 49.2849C47.4932 49.6112 47.7897 49.9376 48.1455 50.1749C48.5012 50.4122 48.857 50.5606 49.2127 50.6792C49.8946 50.9166 50.5764 51.1242 51.3176 51.2429C51.6734 51.3022 52.0588 51.3319 52.4738 51.3022C52.8592 51.3022 53.2446 51.2132 53.63 51.0946C54.3712 50.8572 55.0234 50.5012 55.6163 50.1452L56.061 49.8486C56.2092 49.7596 56.3575 49.6409 56.5057 49.5222C56.8022 49.3145 57.069 49.0772 57.3358 48.8399C57.8694 48.3949 58.403 47.8905 58.907 47.4159C59.7371 46.6148 60.5376 45.7842 61.3084 44.9238C61.5752 44.6568 61.842 44.3898 62.0792 44.1228C62.6425 45.3688 63.6801 46.2588 65.1327 46.7632C65.9332 47.0302 66.6151 47.1785 67.2673 47.1785C68.3345 47.1785 69.1943 46.7928 69.9354 46.0512C70.4987 45.7248 70.9138 45.1611 71.3585 44.5678ZM29.3794 52.1033C28.9347 51.8956 29.1719 50.7089 29.3201 49.9079C29.3497 49.7299 29.3794 49.5816 29.409 49.4629C30.0612 45.5172 31.8993 41.8978 33.5891 38.8124C33.6484 38.7234 33.6781 38.6344 33.7374 38.5157C33.8856 38.1894 34.0635 37.8334 34.3303 37.6554C34.5971 37.4774 34.7157 37.3884 34.9529 37.3884C35.1011 37.3884 35.3383 37.4477 35.7237 37.507C35.8423 37.5367 35.9312 37.6554 35.9312 37.8037C35.5458 40.0584 31.5732 51.6582 29.3794 52.1033ZM66.8226 42.4021C66.7336 42.4614 66.6151 42.4614 66.4965 42.4318C66.4075 42.4021 66.3186 42.3131 66.3186 42.1944C66.2297 41.7791 66.3779 41.0968 66.4668 40.5331C66.4965 40.3847 66.5261 40.2364 66.5558 40.1177C67.1487 36.4983 68.8385 33.1756 70.3801 30.3276C70.4394 30.2386 70.4691 30.1496 70.5284 30.0606C70.6766 29.7639 70.8248 29.4376 71.062 29.2596C71.2992 29.0816 71.4177 29.0222 71.6253 29.0222C71.7735 29.0222 71.9217 29.0519 72.2182 29.1112C72.3961 29.1409 72.5147 29.3189 72.485 29.4969C72.07 31.8109 68.8385 41.0671 66.8226 42.4021Z" fill="white"/>
<path d="M28.075 16.8892C28.994 13.4479 29.9427 10.3031 30.9507 6.95075C31.2768 5.9124 31.6029 4.84439 31.929 3.77637C32.0772 3.4797 32.1365 3.03469 32.0179 2.73802C31.3657 1.34367 30.0316 1.07666 28.7272 0.89866C28.1343 0.839325 27.6006 0.928327 27.1856 1.16566C26.7706 1.403 26.4741 1.81834 26.2369 2.38202C23.8059 8.55278 20.4559 25.374 20.4263 25.552C19.6851 28.3111 19.0329 31.0998 18.44 33.8292C18.0546 35.6092 17.7581 37.1222 17.4616 38.6056C16.8687 41.5723 16.3054 44.361 15.2678 48.2177C14.9713 49.2857 14.6749 50.3538 14.3784 51.4218C14.3488 51.4811 14.2895 51.5108 14.2895 51.5108C14.2895 51.5108 14.2598 51.5108 14.2302 51.4514L13.9634 50.3241C13.8151 49.7011 13.6669 49.0781 13.5483 48.4254C13.2815 47.1794 13.0147 45.963 12.7182 44.717C12.0957 41.869 11.4138 38.9022 10.8505 35.9949C10.3169 33.3248 9.84255 30.5658 9.36821 27.9254C9.16069 26.7091 8.95316 25.4927 8.71599 24.306C8.68635 24.217 8.68635 24.0983 8.6567 24.0093C8.62705 23.8907 8.59741 23.772 8.59741 23.6533C8.50847 23.1193 8.41953 22.5853 8.33059 22.0513C8.12307 20.8053 7.8859 19.4999 7.64873 18.2243C7.53014 17.6012 7.29297 17.0079 6.99651 16.5332C5.8996 14.7532 4.15047 14.9015 2.46064 15.0202C1.06726 15.1389 0.23717 15.7026 0 16.8002V16.8299V16.8596C0.148231 17.2452 0.326109 17.6309 0.47434 18.0166C0.800448 18.7879 1.09691 19.5296 1.30443 20.2713C2.01594 23.0303 2.63851 25.819 3.26109 28.5484L3.58719 30.0318C4.03189 31.9305 4.44694 33.8588 4.89163 35.7575C5.39562 38.0122 5.92925 40.3263 6.43323 42.6106C7.08545 45.429 7.73767 48.2177 8.38988 51.0361C8.95316 53.4985 9.54609 55.9608 10.1094 58.4529C10.1983 58.8089 10.2576 59.1352 10.3465 59.4912C10.6726 60.9152 11.0284 62.3986 11.2656 63.8523C11.651 66.285 12.4218 67.1453 14.4674 67.1453C14.6749 67.1453 14.8824 67.1453 15.1196 67.1157C15.8904 67.0563 16.424 66.7003 17.0466 66.2553C17.4616 65.9587 17.7284 65.2763 17.8174 64.772C18.3214 61.2119 19.6851 54.1215 20.2187 51.4514C20.3373 50.7988 20.4263 50.3834 20.4263 50.2944C20.8117 48.0397 24.0135 34.3335 26.148 25.2554C27.067 21.3096 27.7785 18.1946 28.075 16.8892Z" fill="white"/>
</svg>
