<svg width="176" height="41" viewBox="0 0 176 41" fill="none" xmlns="http://www.w3.org/2000/svg">
<g clip-path="url(#clip0_348_701)">
<path d="M87.8036 10.5005C81.0098 10.5005 76.1113 14.9312 76.1113 21.5774C76.1113 28.2235 81.6252 32.6543 88.419 32.6543C92.5236 32.6543 96.1421 31.0297 98.3821 28.2912L93.6744 25.5712C92.4313 26.9312 90.5421 27.7251 88.419 27.7251C85.4713 27.7251 82.9667 26.1866 82.0375 23.7251H99.2805C99.4159 23.0358 99.4959 22.322 99.4959 21.5712C99.4959 14.9312 94.5975 10.5005 87.8036 10.5005ZM81.9821 19.4235C82.7513 16.9681 84.8559 15.4235 87.7975 15.4235C90.7452 15.4235 92.8498 16.9681 93.6128 19.4235H81.9821ZM154.068 10.5005C147.274 10.5005 142.376 14.9312 142.376 21.5774C142.376 28.2235 147.89 32.6543 154.684 32.6543C158.788 32.6543 162.407 31.0297 164.647 28.2912L159.939 25.5712C158.696 26.9312 156.807 27.7251 154.684 27.7251C151.736 27.7251 149.231 26.1866 148.302 23.7251H165.545C165.681 23.0358 165.761 22.322 165.761 21.5712C165.761 14.9312 160.862 10.5005 154.068 10.5005ZM148.253 19.4235C149.022 16.9681 151.127 15.4235 154.068 15.4235C157.016 15.4235 159.121 16.9681 159.884 19.4235H148.253ZM124.234 21.5774C124.234 25.2697 126.647 27.7312 130.388 27.7312C132.924 27.7312 134.825 26.5805 135.804 24.7035L140.53 27.4297C138.573 30.6912 134.905 32.6543 130.388 32.6543C123.588 32.6543 118.696 28.2235 118.696 21.5774C118.696 14.9312 123.594 10.5005 130.388 10.5005C134.905 10.5005 138.567 12.4635 140.53 15.7251L135.804 18.4512C134.825 16.5743 132.924 15.4235 130.388 15.4235C126.653 15.4235 124.234 17.8851 124.234 21.5774ZM174.991 3.73122V32.0389H169.453V3.73122H174.991ZM23.7482 0.654297L46.4867 40.0389H1.00977L23.7482 0.654297ZM80.5975 3.73122L63.5452 33.2697L46.4928 3.73122H52.8867L63.5452 22.1928L74.2036 3.73122H80.5975ZM116.85 11.1158V17.0789C116.234 16.9005 115.582 16.7774 114.881 16.7774C111.305 16.7774 108.727 19.2389 108.727 22.9312V32.0389H103.188V11.1158H108.727V16.7774C108.727 13.6512 112.364 11.1158 116.85 11.1158Z" fill="white"/>
</g>
<defs>
<clipPath id="clip0_348_701">
<rect width="174.769" height="40" fill="white" transform="translate(0.615234 0.5)"/>
</clipPath>
</defs>
</svg>
